<?xml version="1.0" encoding="utf-8" ?>	<!-- Generator: Assembly 2.4 - http://assemblyapp.co -->	<svg version="1.1" xmlns="http://www.w3.org/2000/svg" xmlns:xlink="http://www.w3.org/1999/xlink" width="4096.00" height="4096.00" viewBox="0 0 4096.0 4096.0">		<g id="document" transform="scale(13.653333333333334 13.653333333333334) translate(150.0 150.0)">			<defs>				<filter id="uuiznNEo" x="0.00%" y="0.00%" width="116.19%" height="116.19%" filterUnits="objectBoundingBox">					<feOffset dx="9.41" dy="9.41" in="SourceAlpha" result="shadowOffsetOuter1" />					<feGaussianBlur stdDeviation="4.71" in="shadowOffsetOuter1" result="shadowBlurOuter1" />					<feFlood flood-color="#000000" flood-opacity="0.11" />					<feComposite in2="shadowBlurOuter1" operator="in" />					<feMerge>						<feMergeNode />						<feMergeNode in="SourceGraphic" />					</feMerge>				</filter>			</defs>			<path d="M34.7605,68.5682 C66.7781,71.1338 94.7739,47.2918 97.3396,15.2743 C99.9052,-16.7432 76.0632,-44.7391 44.0457,-47.3047 C12.0281,-49.8704 -15.9677,-26.0283 -18.5334,5.98917 C-21.099,38.0067 2.74302,66.0026 34.7605,68.5682 Z " fill="#15b4ca" fill-opacity="1.00" filter="url(#uuiznNEo)" />			<path d="M93.2483,14.6231 C90.9943,43.5002 65.9395,65.2162 36.9352,63.0718 C7.93097,60.9275 -13.6578,35.763 -11.5135,6.75877 C-9.3691,-22.2455 15.8041,-43.9527 44.8083,-41.8083 L44.4057,-36.3626 C18.4795,-38.2794 -4.15097,-18.7649 -6.07652,7.27977 C-7.98457,33.0876 11.3941,55.9461 37.5571,57.8804 C63.365,59.7884 86.2234,40.4098 88.1578,14.2468 L93.6034,14.6494 L93.2483,14.6231 Z M37.9109,48.265 C17.0752,46.7245 1.49866,28.7894 3.04786,7.83533 C4.59705,-13.1188 22.633,-28.4498 43.4688,-26.9093 C64.3045,-25.3689 80.0081,-7.54343 78.459,13.4107 L82.9576,13.7433 C84.5284,-9.11374 67.0969,-29.3286 44.1302,-31.0266 C21.1636,-32.7245 0.948777,-15.293 -0.740456,7.55524 C-2.42969,30.4035 14.6379,50.7105 37.9597,52.4347 L38.2748,48.1729 L37.9109,48.265 Z M11.8083,8.48301 C12.9812,-7.38055 26.9663,-19.4401 42.8298,-18.2673 C58.9302,-17.0769 70.7529,-3.10932 69.5801,12.7542 C68.4073,28.6178 54.4222,40.6773 38.5586,39.5045 L38.3048,42.9377 C56.0625,44.2505 71.5645,30.9938 72.8861,13.1177 C74.199,-4.64003 60.9335,-20.0236 43.0574,-21.3453 C25.1813,-22.6669 9.81519,-9.63816 8.49356,8.23794 L11.8083,8.48301 L11.8083,8.48301 Z M42.353,-10.2083 C53.8364,-9.35935 62.4973,0.684494 61.6483,12.1678 C60.7818,23.8879 50.7555,32.3121 39.2722,31.4631 C27.7888,30.6141 19.1279,20.5703 19.9769,9.08693 L17.6092,8.91188 C16.6639,21.6974 26.3116,32.8855 39.0971,33.8308 C51.8827,34.7761 63.1804,25.2556 64.1344,12.3516 C65.0884,-0.55232 55.3136,-11.6308 42.5281,-12.576 L42.353,-10.2083 Z " fill="#51bad2" fill-opacity="1.00" />			<path d="M-71.195,8.20676 L-65.131,8.20676 L-75.774,-37.3973 L-80.4148,-37.3973 L-90.9341,8.20676 L-84.9319,8.20676 L-82.0237,-4.54011 L-74.1033,-4.54011 L-71.195,8.20676 Z M-78.0635,-21.5566 L-75.4646,-10.3566 L-80.6623,-10.3566 L-78.0635,-21.5566 Z M-63.8934,-4.8495 C-63.8934,-0.827429 -63.0271,2.32835 -61.2945,4.55596 C-60.6139,5.36037 -59.6857,6.28854 -58.3244,6.9692 C-56.9631,7.71174 -55.2924,8.20676 -53.0648,8.20676 C-48.6095,8.20676 -46.1963,6.22666 -44.8969,4.55596 C-43.1024,2.26647 -42.2361,-0.827429 -42.2361,-4.8495 L-42.2361,-7.75777 L-48.1145,-7.75777 L-48.1145,-4.8495 C-48.1145,-2.18875 -48.5477,-0.270527 -49.4758,0.967033 C-49.9709,1.52393 -50.8371,2.39023 -53.0648,2.39023 C-54.1786,2.39023 -54.983,2.20459 -55.5399,1.8952 C-56.0968,1.58581 -56.468,1.27642 -56.6537,0.967033 C-57.5819,-0.208649 -58.0769,-2.18875 -58.0769,-4.8495 L-58.0769,-24.403 C-58.0769,-27.93 -57.2725,-29.8482 -56.2205,-30.7145 C-55.1686,-31.5808 -53.9929,-31.5808 -53.0648,-31.5808 C-52.2603,-31.5808 -50.9609,-31.5808 -49.909,-30.7145 C-48.9189,-29.8482 -48.1145,-27.93 -48.1145,-24.403 L-48.1145,-21.4947 L-42.2361,-21.4947 L-42.2361,-24.403 C-42.2361,-28.425 -43.1024,-31.5189 -44.8969,-33.8084 C-46.1963,-35.4791 -48.6095,-37.3973 -53.0648,-37.3973 C-57.52,-37.3973 -59.9951,-35.4791 -61.2945,-33.8084 C-63.0271,-31.5808 -63.8934,-28.425 -63.8934,-24.403 L-63.8934,-4.8495 Z M-39.8847,-4.8495 C-39.8847,-0.827429 -39.0184,2.32835 -37.2859,4.55596 C-36.6052,5.36037 -35.677,6.28854 -34.3157,6.9692 C-32.9544,7.71174 -31.2837,8.20676 -29.0561,8.20676 C-24.6009,8.20676 -22.1876,6.22666 -20.8882,4.55596 C-19.0937,2.26647 -18.2274,-0.827429 -18.2274,-4.8495 L-18.2274,-7.75777 L-24.1058,-7.75777 L-24.1058,-4.8495 C-24.1058,-2.18875 -24.539,-0.270527 -25.4672,0.967033 C-25.9622,1.52393 -26.8285,2.39023 -29.0561,2.39023 C-30.1699,2.39023 -30.9743,2.20459 -31.5312,1.8952 C-32.0881,1.58581 -32.4594,1.27642 -32.645,0.967033 C-33.5732,-0.208649 -34.0682,-2.18875 -34.0682,-4.8495 L-34.0682,-24.403 C-34.0682,-27.93 -33.2638,-29.8482 -32.2119,-30.7145 C-31.1599,-31.5808 -29.9843,-31.5808 -29.0561,-31.5808 C-28.2517,-31.5808 -26.9522,-31.5808 -25.9003,-30.7145 C-24.9103,-29.8482 -24.1058,-27.93 -24.1058,-24.403 L-24.1058,-21.4947 L-18.2274,-21.4947 L-18.2274,-24.403 C-18.2274,-28.425 -19.0937,-31.5189 -20.8882,-33.8084 C-22.1876,-35.4791 -24.6009,-37.3973 -29.0561,-37.3973 C-33.5113,-37.3973 -35.9864,-35.4791 -37.2859,-33.8084 C-39.0184,-31.5808 -39.8847,-28.425 -39.8847,-24.403 L-39.8847,-4.8495 Z M-15.8761,-37.3973 L-15.8761,8.20676 L2.99672,8.20676 L2.99672,2.39023 L-10.0595,2.39023 L-10.0595,-11.718 L2.99672,-11.718 L2.99672,-17.5345 L-10.0595,-17.5345 L-10.0595,-31.5808 L2.99672,-31.5808 L2.99672,-37.3973 L-15.8761,-37.3973 Z M7.14255,-4.78762 C7.14255,3.38028 10.7934,8.14488 18.0331,8.14488 C25.0253,8.14488 28.9236,2.51398 28.9236,-4.47823 C28.9236,-8.19091 27.6242,-11.2229 25.0872,-13.5743 C23.1071,-15.4925 20.8795,-16.2969 19.7038,-16.792 L18.7137,-17.2251 C17.2287,-17.782 15.8055,-18.5864 14.7535,-19.7002 C13.7016,-20.814 12.9591,-22.2372 12.9591,-24.403 C12.9591,-25.2074 13.021,-27.0637 13.7635,-28.6725 C14.4442,-30.2814 15.6198,-31.5808 18.0331,-31.5808 C18.8375,-31.5808 20.1369,-31.5808 21.1889,-30.7145 C22.2408,-29.8482 23.0452,-27.93 23.0452,-24.403 L23.0452,-21.4947 L28.9236,-21.4947 L28.9236,-24.403 C28.9236,-28.425 28.0573,-31.5808 26.2629,-33.8703 C24.9634,-35.541 22.4883,-37.4592 18.0331,-37.4592 C14.8154,-37.4592 12.0928,-36.0979 10.1746,-33.8703 C8.19447,-31.5808 7.14255,-28.3013 7.14255,-24.403 C7.14255,-20.6903 8.38011,-17.6582 10.8552,-15.245 C12.8353,-13.3268 15.0629,-12.3986 16.3624,-11.8417 L17.4762,-11.3467 C18.7756,-10.7898 20.1988,-10.1091 21.2507,-9.11908 C22.3027,-8.06716 23.0452,-6.64396 23.0452,-4.47823 C23.0452,-3.24067 22.9214,-1.50809 22.2408,-0.146771 C21.4982,1.21454 20.2607,2.32835 18.0331,2.32835 C16.8574,2.32835 16.053,2.14272 15.4961,1.83333 C14.9392,1.52393 14.5679,1.27642 14.3823,0.967033 C13.4541,-0.208649 12.9591,-2.12687 12.9591,-4.78762 L12.9591,-7.69589 L7.14255,-7.69589 L7.14255,-4.78762 Z M31.7081,-4.78762 C31.7081,3.38028 35.3589,8.14488 42.5986,8.14488 C49.5909,8.14488 53.4892,2.51398 53.4892,-4.47823 C53.4892,-8.19091 52.1897,-11.2229 49.6527,-13.5743 C47.6726,-15.4925 45.445,-16.2969 44.2694,-16.792 L43.2793,-17.2251 C41.7942,-17.782 40.371,-18.5864 39.3191,-19.7002 C38.2672,-20.814 37.5247,-22.2372 37.5247,-24.403 C37.5247,-25.2074 37.5865,-27.0637 38.3291,-28.6725 C39.0097,-30.2814 40.1854,-31.5808 42.5986,-31.5808 C43.4031,-31.5808 44.7025,-31.5808 45.7544,-30.7145 C46.8064,-29.8482 47.6108,-27.93 47.6108,-24.403 L47.6108,-21.4947 L53.4892,-21.4947 L53.4892,-24.403 C53.4892,-28.425 52.6229,-31.5808 50.8284,-33.8703 C49.529,-35.541 47.0539,-37.4592 42.5986,-37.4592 C39.381,-37.4592 36.6584,-36.0979 34.7401,-33.8703 C32.76,-31.5808 31.7081,-28.3013 31.7081,-24.403 C31.7081,-20.6903 32.9457,-17.6582 35.4208,-15.245 C37.4009,-13.3268 39.6285,-12.3986 40.9279,-11.8417 L42.0417,-11.3467 C43.3412,-10.7898 44.7644,-10.1091 45.8163,-9.11908 C46.8682,-8.06716 47.6108,-6.64396 47.6108,-4.47823 C47.6108,-3.24067 47.487,-1.50809 46.8064,-0.146771 C46.0638,1.21454 44.8263,2.32835 42.5986,2.32835 C41.423,2.32835 40.6186,2.14272 40.0616,1.83333 C39.5047,1.52393 39.1335,1.27642 38.9478,0.967033 C38.0197,-0.208649 37.5247,-2.12687 37.5247,-4.78762 L37.5247,-7.69589 L31.7081,-7.69589 L31.7081,-4.78762 Z " fill="#023649" fill-opacity="1.00" />			<path d="M10.3954,36.4967 L16.3407,36.4967 L18.6056,20.0761 L18.9359,20.0761 L31.157,36.4967 L39.5088,36.4967 L25.3532,18.519 L43.1421,3.08937 L35.1206,3.08937 L19.3134,17.245 L19.0303,17.245 L21.0121,3.08937 L15.0667,3.08937 L10.3954,36.4967 Z M42.2928,36.4967 L47.955,36.4967 L51.1164,13.8477 L45.4542,13.8477 L42.2928,36.4967 Z M45.7373,6.15643 C45.6115,7.06868 45.8395,7.86297 46.4215,8.53929 C47.0034,9.21562 47.8135,9.55378 48.8515,9.55378 C49.8896,9.55378 50.8019,9.23135 51.5883,8.58648 C52.3747,7.94161 52.8466,7.13159 53.0039,6.15643 C53.1611,5.18126 52.9252,4.37124 52.2961,3.72637 C51.6669,3.08151 50.8333,2.75907 49.7952,2.75907 C48.7572,2.75907 47.8528,3.09723 47.0821,3.77356 C46.3114,4.44988 45.8631,5.24417 45.7373,6.15643 Z M58.9964,18.6606 L57.5337,29.0414 C57.3449,30.3626 57.282,31.5265 57.3449,32.5331 C57.4078,33.5397 57.6674,34.3812 58.1235,35.0575 C58.5796,35.7339 59.2638,36.2372 60.1761,36.5675 C61.0883,36.8978 62.2994,37.0629 63.8093,37.0629 C64.4699,37.0629 65.2406,37.0079 66.1214,36.8978 C67.0022,36.7877 67.7572,36.5911 68.3863,36.3079 L69.0469,31.5422 C68.6694,31.7939 68.174,31.9747 67.5606,32.0848 C66.9472,32.1949 66.3888,32.25 65.8855,32.25 C64.6272,32.25 63.8329,31.9197 63.5026,31.2591 C63.1723,30.5985 63.0858,29.702 63.2431,28.5695 L64.6587,18.6606 L70.8872,18.6606 L71.5478,13.8477 L65.3193,13.8477 L66.2158,7.28888 L60.5535,7.28888 L59.657,13.8477 L54.9856,13.8477 L54.3251,18.6606 L58.9964,18.6606 Z " fill="#ffffff" fill-opacity="1.00" />		</g>	</svg>