<?xml version="1.0" standalone="no"?>
<!DOCTYPE svg PUBLIC "-//W3C//DTD SVG 20010904//EN"
 "http://www.w3.org/TR/2001/REC-SVG-20010904/DTD/svg10.dtd">
<svg version="1.0" xmlns="http://www.w3.org/2000/svg"
 width="4096.000000pt" height="4096.000000pt" viewBox="0 0 4096.000000 4096.000000"
 preserveAspectRatio="xMidYMid meet">

<g transform="translate(0.000000,4096.000000) scale(0.100000,-0.100000)"
fill="#000000" stroke="none">
<path d="M22793 25589 c-117 -12 -300 -58 -403 -102 -178 -77 -316 -172 -455
-312 -259 -262 -414 -616 -466 -1065 -16 -138 -16 -441 0 -560 53 -398 215
-719 503 -995 200 -192 371 -298 752 -466 512 -225 658 -324 785 -533 42 -71
87 -199 102 -296 15 -99 6 -409 -16 -510 -55 -256 -170 -427 -347 -516 -108
-54 -179 -67 -353 -61 -178 5 -243 22 -353 92 -87 56 -149 142 -200 278 -68
182 -92 378 -92 758 l0 229 -400 0 -400 0 0 -237 c0 -387 21 -598 81 -841 109
-443 341 -758 684 -930 75 -38 225 -96 230 -90 2 2 23 143 47 313 l43 310 409
3 408 2 -6 -32 c-7 -44 -86 -607 -86 -619 0 -14 20 -11 116 17 465 133 819
511 968 1032 96 331 113 724 45 1037 -73 342 -254 643 -532 886 -181 158 -360
260 -707 403 -231 96 -365 161 -455 222 -339 227 -478 537 -435 973 20 215 83
413 174 550 126 189 308 270 576 257 63 -3 139 -12 169 -20 203 -56 325 -196
390 -452 37 -143 43 -215 50 -559 l6 -340 403 -3 402 -2 0 287 c0 159 -5 338
-10 398 -46 493 -193 858 -450 1116 -226 228 -506 348 -884 379 -143 11 -161
11 -293 -1z"/>
<path d="M26170 25593 c-163 -13 -344 -64 -505 -143 -544 -268 -855 -859 -855
-1625 0 -326 47 -546 170 -800 95 -195 202 -340 363 -490 193 -181 350 -274
778 -465 398 -177 533 -258 649 -387 148 -166 203 -335 203 -618 -1 -345 -71
-573 -224 -726 -119 -119 -258 -169 -468 -169 -157 0 -238 17 -341 71 -127 66
-197 159 -259 345 -56 167 -64 237 -68 607 l-5 337 -400 0 -400 0 5 -362 c5
-376 11 -450 57 -662 41 -187 154 -467 229 -565 l19 -25 78 72 79 72 550 0
c523 0 549 -1 529 -18 -82 -65 -654 -568 -654 -574 0 -4 30 -16 66 -28 186
-57 423 -82 653 -68 115 7 297 40 314 57 5 5 4 25 -2 47 -25 90 -7 224 44 324
34 66 144 182 214 224 149 90 354 102 522 32 14 -6 28 15 73 106 97 198 159
420 186 666 18 162 8 506 -19 636 -64 308 -200 569 -416 794 -228 238 -388
340 -815 520 -395 167 -495 225 -646 376 -195 196 -264 371 -264 675 0 436
149 775 395 899 110 55 313 76 470 49 278 -49 416 -231 481 -632 11 -70 18
-196 21 -418 l5 -317 402 2 401 3 3 190 c4 223 -11 506 -34 660 -94 643 -417
1082 -919 1250 -192 65 -450 95 -665 78z"/>
<path d="M18963 25583 l-653 -3 0 -3110 0 -3110 1290 0 1290 0 0 400 0 400
-890 0 -890 0 0 960 0 960 890 0 890 0 0 400 0 400 -890 0 -890 0 0 955 0 955
890 0 890 0 0 400 0 400 -637 -2 c-351 -2 -932 -4 -1290 -5z"/>
<path d="M9496 25563 c-9 -31 -1426 -6183 -1426 -6194 0 -6 150 -8 407 -7
l407 3 198 865 c108 476 198 866 198 868 0 1 244 1 542 0 l543 -3 197 -863
c108 -475 198 -866 201 -868 2 -2 188 -3 413 -2 l409 3 -724 3108 -725 3107
-317 0 c-294 0 -318 -1 -323 -17z m514 -2946 c91 -394 164 -719 162 -722 -3
-3 -162 -5 -354 -5 -249 0 -348 3 -348 11 0 15 339 1479 347 1499 7 19 -5 68
193 -783z"/>
<path d="M12959 25565 c-457 -74 -776 -295 -977 -675 -92 -174 -153 -371 -195
-625 -21 -128 -21 -154 -25 -1700 -3 -1137 0 -1607 8 -1705 34 -396 133 -702
306 -950 61 -88 201 -227 294 -292 96 -68 251 -144 370 -183 407 -131 916 -85
1255 113 306 179 527 491 635 896 59 221 72 343 77 739 l5 357 -400 0 -400 0
-5 -342 c-6 -355 -12 -421 -56 -582 -69 -249 -200 -389 -418 -443 -93 -23
-312 -22 -407 1 -248 60 -386 251 -454 626 -16 87 -17 227 -17 1680 l0 1585
22 120 c54 298 151 463 320 547 98 49 180 61 377 56 186 -6 257 -23 352 -87
125 -84 209 -247 255 -496 18 -92 22 -164 26 -447 l5 -338 399 0 399 0 0 293
c0 384 -22 591 -87 822 -74 266 -192 482 -360 656 -178 184 -391 299 -672 360
-126 27 -499 36 -632 14z"/>
<path d="M16285 25574 c-16 -3 -74 -13 -128 -24 -543 -108 -902 -473 -1046
-1062 -70 -285 -66 -174 -66 -2003 0 -1742 -1 -1695 46 -1935 119 -600 465
-991 1009 -1140 160 -44 259 -53 475 -47 263 8 422 45 620 142 364 180 621
527 730 990 50 213 57 290 62 678 l5 367 -399 0 -400 0 -6 -317 c-7 -340 -19
-459 -63 -611 -67 -232 -170 -352 -360 -419 -74 -26 -89 -28 -249 -28 -187 0
-243 9 -338 57 -180 90 -288 296 -332 634 -14 106 -15 307 -12 1685 4 1715 0
1612 63 1819 72 235 206 374 403 416 89 19 335 18 426 -1 240 -51 373 -227
436 -582 18 -99 22 -171 26 -444 l5 -326 217 -6 c119 -4 298 -7 399 -7 l183 0
-4 348 c-3 260 -8 376 -21 462 -37 251 -85 416 -172 599 -190 399 -491 638
-922 732 -80 17 -138 22 -327 24 -126 2 -243 1 -260 -1z"/>
</g>
</svg>
