<?xml version="1.0" encoding="utf-8" ?>	<!-- Generator: Assembly 2.4 - http://assemblyapp.co -->	<svg version="1.1" xmlns="http://www.w3.org/2000/svg" xmlns:xlink="http://www.w3.org/1999/xlink" width="4096.00" height="2341.00" viewBox="0 0 4096.0 2341.0">		<g id="document" transform="scale(13.653333333333334 13.653333333333334) translate(150.0 85.71428571428571)">			<defs>				<filter id="2eRWYurn" x="0.00%" y="0.00%" width="116.19%" height="116.19%" filterUnits="objectBoundingBox">					<feOffset dx="13.11" dy="13.11" in="SourceAlpha" result="shadowOffsetOuter1" />					<feGaussianBlur stdDeviation="6.55" in="shadowOffsetOuter1" result="shadowBlurOuter1" />					<feFlood flood-color="#000000" flood-opacity="0.11" />					<feComposite in2="shadowBlurOuter1" operator="in" />					<feMerge>						<feMergeNode />						<feMergeNode in="SourceGraphic" />					</feMerge>				</filter>			</defs>			<path d="M45.501,82.9164 C90.1743,85.2806 128.252,51.0304 130.616,6.35713 C132.981,-38.3161 98.7305,-76.3941 54.0572,-78.7583 C9.38394,-81.1225 -28.694,-46.8723 -31.0582,-2.19907 C-33.4225,42.4742 0.827739,80.5522 45.501,82.9164 Z " fill="#15b4ca" fill-opacity="1.00" filter="url(#2eRWYurn)" />			<path d="M124.896,5.60487 C122.847,45.8942 88.7836,77.0734 48.3214,75.182 C7.85923,73.2906 -23.1471,39.0698 -21.2557,-1.39241 C-19.3644,-41.8546 14.8642,-73.0261 55.3264,-71.1347 L54.9713,-63.5377 C18.8031,-65.2284 -11.9681,-37.2055 -13.6665,-0.87214 C-15.3494,35.1309 12.4929,66.2247 48.9914,67.9308 C84.9945,69.6137 116.088,41.7714 117.794,5.27291 L125.391,5.62803 L124.896,5.60487 Z M49.1212,54.5303 C20.0545,53.1716 -2.3085,28.789 -0.942072,-0.442858 C0.424353,-29.6747 24.9567,-51.6997 54.0234,-50.341 C83.0901,-48.9823 105.626,-24.7571 104.26,4.47473 L110.535,4.76809 C111.86,-27.1139 86.8285,-54.6005 54.789,-56.0982 C22.7496,-57.5958 -4.73698,-32.5642 -6.22693,-0.689895 C-7.71687,31.1844 16.8116,58.813 49.3465,60.3338 L49.6244,54.3883 L49.1212,54.5303 Z M11.2792,0.128416 C12.3136,-22.0019 31.3295,-39.3194 53.4598,-38.2849 C75.9205,-37.235 92.9077,-18.2346 91.8732,3.89574 C90.8387,26.0261 71.8228,43.3436 49.6925,42.3091 L49.4686,47.0985 C74.2414,48.2565 95.324,29.215 96.4897,4.27705 C97.6477,-20.4957 78.5985,-41.4132 53.6606,-42.5789 C28.7226,-43.7446 7.82061,-25.0257 6.65491,-0.0877415 L11.2792,0.128416 L11.2792,0.128416 Z M53.1,-27.0469 C69.1197,-26.2981 81.5569,-12.6412 80.808,3.3785 C80.0438,19.7285 66.4023,31.8353 50.3826,31.0865 C34.3629,30.3377 21.9258,16.6808 22.6746,0.66109 L19.3716,0.506692 C18.5378,18.3431 32.3918,33.5558 50.2282,34.3895 C68.0646,35.2233 83.4347,21.5422 84.2762,3.54062 C85.1177,-14.4609 71.0908,-29.5162 53.2544,-30.3499 L53.1,-27.0469 Z " fill="#51bad2" fill-opacity="1.00" />			<path d="M-104.293,2.87491 L-95.8502,2.64616 L-112.388,-60.4448 L-118.85,-60.2697 L-131.775,3.61952 L-123.418,3.3931 L-119.85,-14.4635 L-108.823,-14.7623 L-104.293,2.87491 Z M-114.978,-38.3041 L-110.938,-22.809 L-118.174,-22.6129 L-114.978,-38.3041 Z M-94.6198,-15.5781 C-94.468,-9.9784 -93.1429,-5.61744 -90.6467,-2.5814 C-89.6687,-1.48713 -88.3414,-0.229896 -86.4204,0.6664 C-84.4971,1.64885 -82.1524,2.27502 -79.051,2.19099 C-72.8482,2.02293 -69.5631,-0.824902 -67.817,-3.19997 C-65.405,-6.4552 -64.3156,-10.7954 -64.4673,-16.3951 L-64.577,-20.4442 L-72.7613,-20.2224 L-72.6515,-16.1734 C-72.5512,-12.4689 -73.0819,-9.78194 -74.3274,-8.02393 C-74.9956,-7.2299 -76.169,-5.99113 -79.2704,-5.9071 C-80.8211,-5.86508 -81.9481,-6.09319 -82.7351,-6.50293 C-83.5221,-6.91267 -84.0507,-7.32941 -84.3208,-7.75316 C-85.6574,-9.35499 -86.4213,-12.0931 -86.5217,-15.7976 L-87.2593,-43.0209 C-87.3923,-47.9315 -86.3447,-50.6324 -84.9129,-51.8782 C-83.481,-53.124 -81.8442,-53.1684 -80.5519,-53.2034 C-79.432,-53.2337 -77.6228,-53.2827 -76.1256,-52.1163 C-74.7145,-50.9476 -73.5222,-48.3073 -73.3892,-43.3967 L-73.2794,-39.3477 L-65.0952,-39.5694 L-65.2049,-43.6185 C-65.3566,-49.2182 -66.6795,-53.493 -69.2642,-56.6129 C-71.1363,-58.8899 -74.5685,-61.4695 -80.7713,-61.3015 C-86.9741,-61.1334 -90.3477,-58.3694 -92.0939,-55.9943 C-94.422,-52.8276 -95.5091,-48.4012 -95.3574,-42.8015 L-94.6198,-15.5781 Z M-61.1936,-16.4838 C-61.0419,-10.8841 -59.7168,-6.52311 -57.2205,-3.48707 C-56.2425,-2.3928 -54.9153,-1.13557 -52.9943,-0.23927 C-51.071,0.743175 -48.7263,1.36935 -45.6249,1.28532 C-39.4221,1.11726 -36.1369,-1.73057 -34.3908,-4.10564 C-31.9788,-7.36087 -30.8894,-11.701 -31.0412,-17.3008 L-31.1509,-21.3498 L-39.3351,-21.1281 L-39.2254,-17.079 C-39.125,-13.3746 -39.6557,-10.6876 -40.9013,-8.9296 C-41.5695,-8.13557 -42.7429,-6.8968 -45.8443,-6.81277 C-47.395,-6.77075 -48.5219,-6.99886 -49.309,-7.4086 C-50.096,-7.81834 -50.6245,-8.23508 -50.8947,-8.65883 C-52.2313,-10.2607 -52.9952,-12.9988 -53.0955,-16.7032 L-53.8331,-43.9266 C-53.9662,-48.8371 -52.9186,-51.5381 -51.4867,-52.7839 C-50.0549,-54.0297 -48.418,-54.074 -47.1258,-54.109 C-46.0058,-54.1394 -44.1967,-54.1884 -42.6994,-53.022 C-41.2884,-51.8532 -40.0961,-49.2129 -39.963,-44.3024 L-39.8533,-40.2533 L-31.6691,-40.4751 L-31.7788,-44.5241 C-31.9305,-50.1239 -33.2533,-54.3987 -35.838,-57.5185 C-37.7102,-59.7956 -41.1424,-62.3752 -47.3452,-62.2071 C-53.548,-62.0391 -56.9216,-59.275 -58.6677,-56.9 C-60.9959,-53.7332 -62.0829,-49.3069 -61.9312,-43.7072 L-61.1936,-16.4838 Z M-28.9953,-62.7043 L-27.275,0.788134 L-0.999255,0.0762027 L-1.21867,-8.02188 L-19.3963,-7.52937 L-19.9285,-27.1715 L-1.75087,-27.664 L-1.97028,-35.7621 L-20.1479,-35.2696 L-20.6778,-54.8256 L-2.50015,-55.3182 L-2.71956,-63.4162 L-28.9953,-62.7043 Z M4.2826,-18.1717 C4.59072,-6.79988 9.85329,-0.304057 19.9328,-0.577158 C29.6678,-0.840923 34.8828,-8.82761 34.619,-18.5625 C34.479,-23.7315 32.5554,-27.9039 28.9346,-31.0819 C26.1054,-33.6778 22.9737,-34.7137 21.3182,-35.3586 L19.9235,-35.9243 C17.8348,-36.6436 15.8231,-37.7099 14.3165,-39.2209 C12.8099,-40.7319 11.7224,-42.6853 11.6407,-45.7006 C11.6104,-46.8205 11.6265,-49.4074 12.5996,-51.6753 C13.4866,-53.9408 15.0744,-55.7943 18.4343,-55.8854 C19.5542,-55.9157 21.3634,-55.9647 22.8606,-54.7983 C24.3578,-53.6319 25.5501,-50.9916 25.6832,-46.0811 L25.7929,-42.032 L33.9771,-42.2538 L33.8674,-46.3028 C33.7157,-51.9025 32.3905,-56.2635 29.8058,-59.3834 C27.9337,-61.6604 24.4153,-64.2377 18.2125,-64.0696 C13.7327,-63.9482 9.99348,-61.9502 7.40687,-58.7765 C4.73644,-55.5142 3.39561,-50.9086 3.54266,-45.4812 C3.68271,-40.3122 5.52009,-36.1375 9.05711,-32.871 C11.8863,-30.2751 15.0227,-29.0669 16.8528,-28.3405 L18.4222,-27.6934 C20.2524,-26.967 22.2595,-26.0731 23.7614,-24.7343 C25.2656,-23.3095 26.3531,-21.356 26.4348,-18.3408 C26.4815,-16.6178 26.3745,-14.2009 25.4782,-12.28 C24.4958,-10.3567 22.8148,-8.75928 19.7134,-8.67524 C18.0766,-8.63089 16.9496,-8.859 16.1626,-9.26874 C15.3756,-9.67848 14.8493,-10.0091 14.5792,-10.4328 C13.2426,-12.0347 12.4811,-14.6866 12.3807,-18.3911 L12.271,-22.4401 L4.1729,-22.2207 L4.2826,-18.1717 Z M38.4841,-19.0983 C38.7922,-7.72656 44.0548,-1.23074 54.1343,-1.50384 C63.8692,-1.7676 69.0843,-9.75429 68.8205,-19.4892 C68.6805,-24.6582 66.7569,-28.8305 63.1361,-32.0085 C60.3069,-34.6045 57.1752,-35.6404 55.5197,-36.2853 L54.1249,-36.851 C52.0363,-37.5703 50.0245,-38.6365 48.518,-40.1476 C47.0114,-41.6586 45.9239,-43.612 45.8422,-46.6273 C45.8119,-47.7472 45.828,-50.334 46.8011,-52.6019 C47.6881,-54.8675 49.2759,-56.721 52.6358,-56.812 C53.7557,-56.8424 55.5649,-56.8914 57.0621,-55.725 C58.5593,-54.5586 59.7516,-51.9183 59.8847,-47.0077 L59.9944,-42.9587 L68.1786,-43.1804 L68.0689,-47.2295 C67.9172,-52.8292 66.592,-57.1902 64.0073,-60.31 C62.1352,-62.5871 58.6168,-65.1643 52.414,-64.9963 C47.9342,-64.8749 44.195,-62.8769 41.6084,-59.7031 C38.9379,-56.4409 37.5971,-51.8353 37.7442,-46.4078 C37.8842,-41.2388 39.7216,-37.0642 43.2586,-33.7977 C46.0878,-31.2018 49.2242,-29.9935 51.0543,-29.2672 L52.6237,-28.62 C54.4538,-27.8937 56.461,-26.9997 57.9629,-25.661 C59.4671,-24.2362 60.5546,-22.2827 60.6363,-19.2675 C60.683,-17.5445 60.576,-15.1276 59.6797,-13.2066 C58.6973,-11.2833 57.0163,-9.68595 53.9149,-9.60192 C52.2781,-9.55757 51.1511,-9.78568 50.3641,-10.1954 C49.5771,-10.6052 49.0508,-10.9358 48.7807,-11.3595 C47.4441,-12.9613 46.6826,-15.6133 46.5822,-19.3178 L46.4725,-23.3668 L38.3744,-23.1474 L38.4841,-19.0983 Z " fill="#023649" fill-opacity="1.00" />			<path d="M10.3687,39.1838 L18.6462,38.9596 L21.1801,16.0126 L21.6399,16.0001 L39.2741,38.4007 L50.902,38.0856 L30.5156,13.5901 L54.7002,-8.56289 L43.5322,-8.2603 L22.0587,12.0442 L21.6645,12.0549 L23.8897,-7.72809 L15.6122,-7.50381 L10.3687,39.1838 Z M54.7779,37.9806 L62.6612,37.767 L66.2084,6.11456 L58.3251,6.32815 L54.7779,37.9806 Z M58.4291,-4.39067 C58.2883,-3.11584 58.6358,-2.01859 59.4716,-1.09893 C60.3073,-0.179263 61.4478,0.260989 62.8931,0.221829 C64.3383,0.18267 65.5963,-0.300652 66.6668,-1.22814 C67.7374,-2.15562 68.3638,-3.30117 68.546,-4.66478 C68.7282,-6.0284 68.3692,-7.14725 67.4689,-8.02133 C66.5687,-8.89542 65.3959,-9.31288 63.9506,-9.27372 C62.5054,-9.23456 61.259,-8.72964 60.2115,-7.75895 C59.164,-6.78826 58.5699,-5.6655 58.4291,-4.39067 Z M77.3608,12.5181 L75.7159,27.026 C75.503,28.8725 75.4593,30.4954 75.5849,31.8945 C75.7104,33.2936 76.1035,34.4553 76.764,35.3797 C77.4246,36.3042 78.3961,36.9791 79.6787,37.4045 C80.9612,37.83 82.6536,38.0142 84.7558,37.9573 C85.6755,37.9323 86.7465,37.8266 87.9686,37.6401 C89.1907,37.4536 90.2344,37.1514 91.0997,36.7335 L91.8396,30.0735 C91.3236,30.4381 90.6406,30.7086 89.7907,30.885 C88.9408,31.0614 88.1655,31.1592 87.4648,31.1781 C85.713,31.2256 84.5947,30.7957 84.1099,29.8884 C83.6251,28.9812 83.4708,27.7363 83.6471,26.1537 L85.2441,12.3045 L93.9158,12.0696 L94.6539,5.34383 L85.9823,5.57879 L86.9831,-3.58651 L79.0998,-3.37292 L78.099,5.79238 L71.5953,5.9686 L70.8571,12.6943 L77.3608,12.5181 Z " fill="#ffffff" fill-opacity="1.00" />		</g>	</svg>